<?xml version="1.0" standalone="no"?><!DOCTYPE svg PUBLIC "-//W3C//DTD SVG 1.1//EN" "http://www.w3.org/Graphics/SVG/1.1/DTD/svg11.dtd"><svg t="1682308217714" class="icon" viewBox="0 0 1024 1024" version="1.1" xmlns="http://www.w3.org/2000/svg" p-id="1777" xmlns:xlink="http://www.w3.org/1999/xlink" width="200" height="200"><path d="M929.048 309.444c-2.29-87.53-12.719-146.574-12.778-147.202-0.419-4.528-2.727-8.672-6.36-11.422-2.851-2.16-6.315-3.306-9.843-3.306-0.966 0-1.938 0.086-2.902 0.261-0.55 0.099-45.037 14.962-102.819 14.962-33.24 0-71.504-12.189-92.138-18.502-60.36-18.461-105.611-42.6-132.947-58.762-29.658-17.534-45.222-30.874-45.376-31.006-3.062-2.643-6.872-3.966-10.678-3.966-3.808 0-7.614 1.322-10.669 3.97-0.154 0.133-15.706 13.472-45.341 31.006-27.312 16.162-72.53 40.299-132.842 58.758-20.618 6.312-55.874 19.502-89.086 19.502-57.861 0-105.17-15.861-105.722-15.962-0.965-0.174-1.938-0.261-2.904-0.261-3.528 0-6.992 1.146-9.843 3.306-3.634 2.75-5.941 6.894-6.36 11.424-0.058 0.627-8.155 59.672-10.442 147.2-2.115 80.883-1.285 190.078 13.118 298.098 6.715 50.357 33.957 95.003 77.029 145.834 33.714 39.786 78.474 79.496 133.03 118.027 92.309 65.187 180.765 104.083 184.443 105.707 2.098 0.926 4.344 1.39 6.59 1.39 2.245 0 4.49-0.461 6.587-1.387 3.682-1.624 90.21-40.522 182.584-105.707 54.6-38.53 99.392-78.238 133.128-118.027 43.106-50.832 70.368-99.474 77.085-149.83C921.551 543.926 932.884 455.983 929.048 309.444zM850.464 595.063c-4.856 36.398-26.632 74.629-62.461 116.88-30.251 35.678-71.048 71.733-121.254 107.163-63.066 44.502-123.253 76.04-152.731 90.533-30.342-14.627-91.202-46.042-154.189-90.523-50.168-35.43-90.934-71.485-121.165-107.16-37.734-44.531-57.802-78.294-62.416-112.894-14.586-109.379-14.434-216.955-12.578-287.941 0.917-35.077 3.618-65.33 5.31-88.846 19.37 3.088 41.973 5.394 66.288 5.394 38.266 0 74.507-11.658 98.49-19.371 3.376-1.086 6.563-2.11 9.174-2.91 50.91-15.582 100.237-37.397 146.61-64.837 8.984-5.315 16.882-10.322 23.68-14.846 6.806 4.526 14.714 9.534 23.71 14.854 46.411 27.44 95.771 49.253 146.704 64.829l2.632 0.808c23.314 7.155 66.71 20.474 108.077 20.474 23.752 0 45.544-2.088 64.162-4.914 1.978 23.568 5.946 54.086 6.869 89.37C869.144 455.087 857.903 539.321 850.464 595.063zM682.487 648.89c25.998-43.464 41.595-92.979 41.595-148.738 0-154.488-78.851-242.677-207.978-242.677-130.846 0-207.979 89.68-207.979 242.677 0 151.187 81.589 237.456 207.979 237.456 53.362 0 97.896-15.654 132.587-46.968l46.795 44.357c5.2 3.467 12.106 6.078 20.797 7.83 15.6-1.752 24.251-8.683 25.998-20.874 0-6.933-3.494-14.76-10.398-23.485L682.487 648.89zM638.293 607.14l-31.197-31.314c-6.949-6.933-14.747-10.438-23.398-10.438-15.6 3.506-24.291 12.192-25.998 26.094-1.747 8.723 2.6 16.555 12.998 23.485l38.997 36.531c-24.29 26.094-55.486 33.178-93.59 33.178-93.59-3.467-149.566-60.93-149.566-184.525 0-119.477 55.976-185.267 149.566-190.486 91.843 5.219 149.566 69.678 149.565 190.488C665.669 541.169 652.143 575.826 638.293 607.14z" p-id="1778"></path></svg>