<?xml version="1.0" standalone="no"?><!DOCTYPE svg PUBLIC "-//W3C//DTD SVG 1.1//EN" "http://www.w3.org/Graphics/SVG/1.1/DTD/svg11.dtd"><svg t="1682308212705" class="icon" viewBox="0 0 1024 1024" version="1.1" xmlns="http://www.w3.org/2000/svg" p-id="1642" xmlns:xlink="http://www.w3.org/1999/xlink" width="200" height="200"><path d="M930.304 137.216a35.328 35.328 0 0 1 35.328 35.328v506.88a35.328 35.328 0 0 1-35.328 35.328H93.696a35.328 35.328 0 0 1-35.328-35.328V172.544a35.328 35.328 0 0 1 35.328-35.328h836.608m0-58.88H93.696A93.696 93.696 0 0 0 0 172.032v506.88a93.696 93.696 0 0 0 93.696 93.696h836.608A93.696 93.696 0 0 0 1024 678.912V172.032a93.696 93.696 0 0 0-93.696-93.696zM541.184 714.24h-58.368v241.152h58.368V714.24z m241.664 200.192H241.152a29.184 29.184 0 0 0-29.184 29.184A29.44 29.44 0 0 0 241.152 972.8h541.184a29.184 29.184 0 0 0 0-58.368z m-471.552-568.32h-47.104v287.232h47.104zM460.8 258.048h-47.104v375.296H460.8z m149.504 128H563.2v247.296h47.104v-247.296z m149.504-59.904h-47.104v307.2h47.104z" fill="" p-id="1643"></path></svg>